name analog
datacolumns 19
datarows 57
range 0.335 0.363
endheader
time	ground_force_vx	ground_force_vy	ground_force_vz	ground_force_px	ground_force_py	ground_force_pz	l_ground_force_vx	l_ground_force_vy	l_ground_force_vz	l_ground_force_px	l_ground_force_py	l_ground_force_pz	ground_torque_x	ground_torque_y	ground_torque_z	l_ground_torque_x	l_ground_torque_y	l_ground_torque_z
0.335	-0.0	-0.0	-0.0	-0.0	-0.0	-0.0	0.292558878660202	2.397840738296509	-751.42626953125	-0.0	-0.0	-0.0	-0.0	-0.0	-0.0	210874.328125	7379.55224609375	51.30841827392578
0.3355	-0.0	-0.0	-0.0	-0.0	-0.0	-0.0	0.2173184305429458	1.841433048248291	-750.9118041992188	-0.0	-0.0	-0.0	-0.0	-0.0	-0.0	210822.375	7240.8046875	95.17137908935548
0.336	-0.0	-0.0	-0.0	-0.0	-0.0	-0.0	0.747157871723175	1.6029891967773438	-750.6759033203125	-0.0	-0.0	-0.0	-0.0	-0.0	-0.0	210305.671875	7259.2724609375	244.94305419921875
0.3365	-0.0	-0.0	-0.0	-0.0	-0.0	-0.0	0.9281488060951232	1.35437273979187	-749.4326171875	-0.0	-0.0	-0.0	-0.0	-0.0	-0.0	210152.53125	7258.0146484375	305.48760986328125
0.337	-0.0	-0.0	-0.0	-0.0	-0.0	-0.0	0.2930716276168823	0.9368590712547302	-750.9191284179688	-0.0	-0.0	-0.0	-0.0	-0.0	-0.0	209654.640625	7115.42529296875	267.4227294921875
0.3375	-0.0	-0.0	-0.0	-0.0	-0.0	-0.0	0.0910422801971435	0.7507343292236328	-749.8901977539062	-0.0	-0.0	-0.0	-0.0	-0.0	-0.0	209483.8125	7171.408203125	199.8553924560547
0.338	-0.0	-0.0	-0.0	-0.0	-0.0	-0.0	-0.0166715830564498	0.2514451444149017	-751.2015991210938	-0.0	-0.0	-0.0	-0.0	-0.0	-0.0	209210.671875	7206.46826171875	130.04872131347656
0.3385	-0.0	-0.0	-0.0	-0.0	-0.0	-0.0	-0.1449500918388366	-0.3957252204418182	-749.790283203125	-0.0	-0.0	-0.0	-0.0	-0.0	-0.0	209046.15625	7437.2216796875	75.65419006347656
0.339	-0.0	-0.0	-0.0	-0.0	-0.0	-0.0	-0.934757649898529	-0.1766433715820312	-747.2921752929688	-0.0	-0.0	-0.0	-0.0	-0.0	-0.0	208591.859375	7378.40576171875	-5.286468029022217
0.3395	-0.0	-0.0	-0.0	-0.0	-0.0	-0.0	-1.351320743560791	-0.5738120079040527	-748.2665405273438	-0.0	-0.0	-0.0	-0.0	-0.0	-0.0	208589.015625	7709.07421875	-75.7966537475586
0.34	-0.0	-0.0	-0.0	-0.0	-0.0	-0.0	-1.446993350982666	-0.538032054901123	-748.9188842773438	-0.0	-0.0	-0.0	-0.0	-0.0	-0.0	208520.71875	7925.2685546875	-155.01780700683594
0.3405	-0.0	-0.0	-0.0	-0.0	-0.0	-0.0	-1.3223429918289185	-0.7245033979415894	-748.9247436523438	-0.0	-0.0	-0.0	-0.0	-0.0	-0.0	208358.59375	8123.515625	-123.02722930908205
0.341	-0.0	-0.0	-0.0	-0.0	-0.0	-0.0	-1.181086182594299	-1.297101378440857	-749.9776611328125	-0.0	-0.0	-0.0	-0.0	-0.0	-0.0	208128.109375	8189.47314453125	23.838865280151367
0.3415	-0.0	-0.0	-0.0	-0.0	-0.0	-0.0	-0.8941017985343933	-1.4258487224578855	-750.1060791015625	-0.0	-0.0	-0.0	-0.0	-0.0	-0.0	208298.8125	8075.501953125	-21.297237396240234
0.342	-0.0	-0.0	-0.0	-0.0	-0.0	-0.0	-0.1800473630428314	-2.121910095214844	-750.767578125	-0.0	-0.0	-0.0	-0.0	-0.0	-0.0	208363.796875	8130.462890625	40.74407577514648
0.3425	-0.0	-0.0	-0.0	-0.0	-0.0	-0.0	0.0862962901592254	-1.9050084352493288	-751.8980712890625	-0.0	-0.0	-0.0	-0.0	-0.0	-0.0	208495.8125	8046.01171875	340.3625793457031
0.343	-0.0	-0.0	-0.0	-0.0	-0.0	-0.0	0.6389869451522827	-2.473007202148437	-753.2869873046875	-0.0	-0.0	-0.0	-0.0	-0.0	-0.0	208668.609375	8226.619140625	340.3154602050781
0.3435	-0.0	-0.0	-0.0	-0.0	-0.0	-0.0	0.7274627089500427	-2.4209508895874023	-753.8111572265625	-0.0	-0.0	-0.0	-0.0	-0.0	-0.0	209003.609375	8039.52978515625	416.68170166015625
0.34400000000000003	-0.0	-0.0	-0.0	-0.0	-0.0	-0.0	0.7983332872390747	-2.48000431060791	-753.35107421875	-0.0	-0.0	-0.0	-0.0	-0.0	-0.0	208807.96875	8142.31005859375	252.07151794433597
0.34450000000000003	-0.0	-0.0	-0.0	-0.0	-0.0	-0.0	0.768388032913208	-2.650340795516968	-754.1754150390625	-0.0	-0.0	-0.0	-0.0	-0.0	-0.0	208429.375	8058.20263671875	154.18714904785156
0.34500000000000003	-0.0	-0.0	-0.0	-0.0	-0.0	-0.0	0.8439126014709473	-2.723637104034424	-752.7142333984375	-0.0	-0.0	-0.0	-0.0	-0.0	-0.0	208584.65625	8004.607421875	266.8847351074219
0.34550000000000003	-0.0	-0.0	-0.0	-0.0	-0.0	-0.0	1.5530314445495603	-2.862701177597046	-752.179931640625	-0.0	-0.0	-0.0	-0.0	-0.0	-0.0	208423.859375	8021.61181640625	295.640625
0.34600000000000003	-0.0	-0.0	-0.0	-0.0	-0.0	-0.0	1.7064664363861084	-3.585832118988037	-752.1865234375	-0.0	-0.0	-0.0	-0.0	-0.0	-0.0	208351.21875	7765.353515625	383.4914855957031
0.34650000000000003	-0.0	-0.0	-0.0	-0.0	-0.0	-0.0	1.6073555946350098	-4.240157127380371	-752.3666381835938	-0.0	-0.0	-0.0	-0.0	-0.0	-0.0	208233.390625	8106.6845703125	274.5707702636719
0.34700000000000003	-0.0	-0.0	-0.0	-0.0	-0.0	-0.0	1.5821772813796997	-5.049893856048584	-752.9474487304688	-0.0	-0.0	-0.0	-0.0	-0.0	-0.0	208140.46875	8101.90771484375	187.60227966308597
0.34750000000000003	-0.0	-0.0	-0.0	-0.0	-0.0	-0.0	1.5379037857055664	-5.144705772399902	-753.644287109375	-0.0	-0.0	-0.0	-0.0	-0.0	-0.0	208634.265625	8263.0380859375	71.33903503417969
0.34800000000000003	-0.0	-0.0	-0.0	-0.0	-0.0	-0.0	1.6855368614196775	-5.034431457519531	-754.0223999023438	-0.0	-0.0	-0.0	-0.0	-0.0	-0.0	208983.21875	8404.521484375	133.39752197265625
0.34850000000000003	-0.0	-0.0	-0.0	-0.0	-0.0	-0.0	1.6227089166641235	-4.725312232971191	-755.3609008789062	-0.0	-0.0	-0.0	-0.0	-0.0	-0.0	209453.921875	8723.810546875	158.1417236328125
0.34900000000000003	-0.0	-0.0	-0.0	-0.0	-0.0	-0.0	1.581918478012085	-4.312952041625977	-758.1231079101562	-0.0	-0.0	-0.0	-0.0	-0.0	-0.0	209831.84375	8957.0966796875	-49.3499755859375
0.34950000000000003	-0.0	-0.0	-0.0	-0.0	-0.0	-0.0	1.5005817413330078	-3.370835781097412	-760.1285400390625	-0.0	-0.0	-0.0	-0.0	-0.0	-0.0	210653.125	9091.751953125	-6.199084281921387
0.35000000000000003	-0.0	-0.0	-0.0	-0.0	-0.0	-0.0	1.4705722332000732	-2.671404361724853	-761.993896484375	-0.0	-0.0	-0.0	-0.0	-0.0	-0.0	211338.734375	9524.24609375	-115.7793960571289
0.35050000000000003	-0.0	-0.0	-0.0	-0.0	-0.0	-0.0	0.9206351637840272	-2.0843489170074463	-764.24658203125	-0.0	-0.0	-0.0	-0.0	-0.0	-0.0	211817.46875	10022.6318359375	-214.67015075683597
0.35100000000000003	-0.0	-0.0	-0.0	-0.0	-0.0	-0.0	0.709686279296875	-1.9581031799316408	-765.0360717773438	-0.0	-0.0	-0.0	-0.0	-0.0	-0.0	212071.625	10413.701171875	-375.5317077636719
0.35150000000000003	-0.0	-0.0	-0.0	-0.0	-0.0	-0.0	-0.0957214534282684	-1.9398478269577024	-764.9615478515625	-0.0	-0.0	-0.0	-0.0	-0.0	-0.0	212373.546875	10749.392578125	-559.2919311523438
0.352	-0.0	-0.0	-0.0	-0.0	-0.0	-0.0	-0.798429012298584	-2.1928772926330566	-764.328125	-0.0	-0.0	-0.0	-0.0	-0.0	-0.0	212414.8125	10980.01171875	-702.864501953125
0.3525	-0.0	-0.0	-0.0	-0.0	-0.0	-0.0	-1.230539321899414	-2.214908599853516	-764.8165283203125	-0.0	-0.0	-0.0	-0.0	-0.0	-0.0	212393.125	11283.24609375	-806.2064819335938
0.353	-0.0	-0.0	-0.0	-0.0	-0.0	-0.0	-1.2573015689849854	-2.1808536052703857	-763.655029296875	-0.0	-0.0	-0.0	-0.0	-0.0	-0.0	212808.5625	11457.962890625	-984.3599853515624
0.3535	-0.0	-0.0	-0.0	-0.0	-0.0	-0.0	-1.759661316871643	-1.7634708881378174	-765.7617797851562	-0.0	-0.0	-0.0	-0.0	-0.0	-0.0	212847.171875	11894.0888671875	-1028.717041015625
0.354	-0.0	-0.0	-0.0	-0.0	-0.0	-0.0	-1.743339776992798	-1.7433347702026367	-765.93310546875	-0.0	-0.0	-0.0	-0.0	-0.0	-0.0	213638.25	12138.5	-1009.0033569335938
0.3545	-0.0	-0.0	-0.0	-0.0	-0.0	-0.0	-1.0679513216018677	-0.9777109026908876	-768.7117919921875	-0.0	-0.0	-0.0	-0.0	-0.0	-0.0	214194.34375	12406.5048828125	-931.7418212890624
0.355	-0.0	-0.0	-0.0	-0.0	-0.0	-0.0	-0.3392740190029144	-0.4261075854301452	-771.5025634765625	-0.0	-0.0	-0.0	-0.0	-0.0	-0.0	214821.078125	12489.2939453125	-963.6443481445312
0.3555	-0.0	-0.0	-0.0	-0.0	-0.0	-0.0	-0.6809419393539429	0.0415958985686302	-773.0626831054688	-0.0	-0.0	-0.0	-0.0	-0.0	-0.0	215662.53125	12782.998046875	-895.6150512695312
0.356	-0.0	-0.0	-0.0	-0.0	-0.0	-0.0	-0.9994932413101196	0.0599276274442672	-775.516845703125	-0.0	-0.0	-0.0	-0.0	-0.0	-0.0	216090.4375	12898.5419921875	-970.0617065429688
0.3565	-0.0	-0.0	-0.0	-0.0	-0.0	-0.0	-1.7480677366256714	0.1991562247276306	-776.0321044921875	-0.0	-0.0	-0.0	-0.0	-0.0	-0.0	216414.046875	13115.53515625	-1127.2554931640625
0.357	-0.0	-0.0	-0.0	-0.0	-0.0	-0.0	-2.274824857711792	0.2334484159946441	-776.4508666992188	-0.0	-0.0	-0.0	-0.0	-0.0	-0.0	216740.8125	13297.283203125	-1395.7684326171875
0.3575	-0.0	-0.0	-0.0	-0.0	-0.0	-0.0	-2.523498058319092	0.4959181249141693	-776.959228515625	-0.0	-0.0	-0.0	-0.0	-0.0	-0.0	216867.515625	13753.23046875	-1534.1219482421875
0.358	-0.0	-0.0	-0.0	-0.0	-0.0	-0.0	-2.79443359375	0.7508649230003357	-777.1622314453125	-0.0	-0.0	-0.0	-0.0	-0.0	-0.0	217377.53125	14192.103515625	-1528.0184326171875
0.3585	-0.0	-0.0	-0.0	-0.0	-0.0	-0.0	-2.628659725189209	1.21617591381073	-778.01171875	-0.0	-0.0	-0.0	-0.0	-0.0	-0.0	217669.203125	14321.8603515625	-1598.546142578125
0.359	-0.0	-0.0	-0.0	-0.0	-0.0	-0.0	-2.185677289962769	1.3408010005950928	-779.0537719726562	-0.0	-0.0	-0.0	-0.0	-0.0	-0.0	218216.453125	14218.4326171875	-1476.2144775390625
0.3595	-0.0	-0.0	-0.0	-0.0	-0.0	-0.0	-1.5846494436264038	1.8065428733825684	-781.25830078125	-0.0	-0.0	-0.0	-0.0	-0.0	-0.0	218759.484375	14279.724609375	-1359.8232421875
0.36	-0.0	-0.0	-0.0	-0.0	-0.0	-0.0	-1.3062077760696411	1.8908112049102783	-783.8289794921875	-0.0	-0.0	-0.0	-0.0	-0.0	-0.0	219422.65625	14402.7451171875	-1301.691162109375
0.3605	-0.0	-0.0	-0.0	-0.0	-0.0	-0.0	-0.8530980944633484	1.9085748195648196	-785.4240112304688	-0.0	-0.0	-0.0	-0.0	-0.0	-0.0	220017.046875	14745.3837890625	-1158.5731201171875
0.361	-0.0	-0.0	-0.0	-0.0	-0.0	-0.0	-1.1134440898895264	2.287285327911377	-786.096923828125	-0.0	-0.0	-0.0	-0.0	-0.0	-0.0	220599.8125	14892.4619140625	-1318.736083984375
0.3615	-0.0	-0.0	-0.0	-0.0	-0.0	-0.0	-1.740903377532959	2.2440905570983887	-786.5490112304688	-0.0	-0.0	-0.0	-0.0	-0.0	-0.0	220760.15625	15180.0224609375	-1458.8974609375
0.362	-0.0	-0.0	-0.0	-0.0	-0.0	-0.0	-2.6727850437164307	2.4975314140319824	-787.4598388671875	-0.0	-0.0	-0.0	-0.0	-0.0	-0.0	220847.09375	15473.2646484375	-1593.7813720703125
0.3625	-0.0	-0.0	-0.0	-0.0	-0.0	-0.0	-2.9832468032836914	2.581831455230713	-788.0416259765625	-0.0	-0.0	-0.0	-0.0	-0.0	-0.0	221010.953125	15718.005859375	-1689.5521240234375
0.363	-0.0	-0.0	-0.0	-0.0	-0.0	-0.0	-2.799604177474976	2.4011363983154297	-788.1002197265625	-0.0	-0.0	-0.0	-0.0	-0.0	-0.0	221308.828125	16064.4033203125	-1670.1304931640625
